<?xml version="1.0" standalone="no"?>
<!DOCTYPE svg PUBLIC "-//W3C//DTD SVG 20010904//EN"
 "http://www.w3.org/TR/2001/REC-SVG-20010904/DTD/svg10.dtd">
<svg version="1.0" xmlns="http://www.w3.org/2000/svg"
 width="3840.000000pt" height="2160.000000pt" viewBox="0 0 3840.000000 2160.000000"
 preserveAspectRatio="xMidYMid meet">

<g transform="translate(0.000000,2160.000000) scale(0.100000,-0.100000)"
fill="#000000" stroke="none">
<path d="M22230 13619 l0 -151 -26 31 c-51 61 -166 65 -231 8 -52 -45 -73 -98
-73 -182 0 -116 50 -192 142 -216 59 -16 114 -1 157 42 l31 31 0 -31 0 -31 70
0 70 0 0 325 0 325 -70 0 -70 0 0 -151z m-39 -199 c24 -13 49 -61 49 -95 0
-34 -25 -82 -49 -95 -35 -18 -88 -12 -118 14 -25 21 -28 31 -28 81 0 50 3 60
28 81 30 26 83 32 118 14z"/>
<path d="M22750 13445 l0 -325 65 0 65 0 0 31 0 31 39 -35 c88 -79 213 -53
270 56 52 102 23 259 -58 314 -69 47 -169 38 -223 -19 l-27 -29 6 151 6 150
-71 0 -72 0 0 -325z m291 -44 c24 -24 29 -38 29 -76 0 -64 -39 -105 -100 -105
-62 0 -90 33 -90 105 0 48 4 60 26 80 39 36 96 34 135 -4z"/>
<path d="M23310 13445 l0 -325 75 0 75 0 0 325 0 325 -75 0 -75 0 0 -325z"/>
<path d="M26120 13445 l0 -325 70 0 70 0 0 119 c0 168 15 201 94 201 58 0 66
-22 66 -182 l0 -138 70 0 70 0 0 165 c0 179 -6 207 -54 238 -60 40 -166 28
-218 -24 -16 -16 -30 -29 -31 -29 -1 0 -1 67 1 150 l3 150 -70 0 -71 0 0 -325z"/>
<path d="M28870 13445 l0 -325 75 0 75 0 0 325 0 325 -75 0 -75 0 0 -325z"/>
<path d="M25781 13725 c-85 -24 -154 -84 -193 -170 -18 -39 -22 -68 -22 -135
0 -107 25 -170 94 -234 88 -82 169 -100 290 -65 l80 23 0 83 c0 46 -3 83 -6
83 -3 0 -21 -12 -41 -27 -50 -39 -135 -44 -182 -11 -102 69 -103 227 -1 295
54 37 160 26 199 -20 25 -31 31 -18 31 67 l0 84 -41 16 c-59 24 -145 28 -208
11z"/>
<path d="M18312 13713 c-5 -10 -19 -46 -32 -80 l-22 -63 -58 0 -58 0 -16 -47
c-9 -26 -16 -48 -16 -50 0 -2 25 -3 56 -3 53 0 55 -1 48 -22 -20 -67 -20 -67
-80 -70 l-56 -3 -19 -47 -19 -48 55 0 c30 0 55 -4 55 -10 0 -5 -11 -39 -25
-76 -14 -36 -25 -68 -25 -70 0 -2 22 -4 49 -4 l50 0 28 80 28 80 52 0 52 0
-29 -81 -30 -80 51 3 52 3 27 75 27 75 60 3 59 3 16 49 16 50 -54 0 c-30 0
-54 3 -54 6 0 4 5 24 12 45 l11 39 57 0 57 0 17 43 c9 23 16 46 16 50 0 4 -24
7 -54 7 l-55 0 30 81 29 80 -51 -3 -52 -3 -27 -75 -27 -75 -53 -3 c-47 -3 -52
-1 -45 15 16 39 45 127 45 135 0 4 -20 8 -45 8 -32 0 -47 -5 -53 -17z m100
-288 l-16 -45 -54 0 c-48 0 -53 2 -47 18 4 9 12 29 17 45 9 25 14 27 63 27
l54 0 -17 -45z"/>
<path d="M18822 13718 c-11 -15 -62 -115 -62 -123 0 -3 29 -5 65 -5 l65 0 0
-235 0 -235 70 0 70 0 0 305 0 305 -99 0 c-67 0 -102 -4 -109 -12z"/>
<path d="M24320 13660 l0 -70 65 0 65 0 0 -235 0 -235 85 0 85 0 0 235 0 235
65 0 65 0 0 70 0 70 -215 0 -215 0 0 -70z"/>
<path d="M22504 13675 c-26 -39 -6 -75 40 -75 51 0 75 50 40 84 -24 24 -61 20
-80 -9z"/>
<path d="M16515 13541 c-107 -28 -169 -107 -170 -217 0 -78 38 -145 109 -188
42 -26 58 -30 120 -30 60 0 79 4 120 28 54 32 101 98 111 157 15 88 -36 189
-115 229 -44 22 -131 33 -175 21z m120 -136 c21 -20 25 -34 25 -80 0 -70 -28
-105 -85 -105 -57 0 -85 35 -85 105 0 70 28 105 85 105 25 0 44 -8 60 -25z"/>
<path d="M17660 13534 c-19 -8 -47 -29 -62 -47 l-27 -32 -1 43 0 42 -65 0 -65
0 0 -210 0 -210 70 0 70 0 0 105 c0 158 28 205 121 205 l46 0 6 53 c2 28 3 55
0 60 -7 12 -55 7 -93 -9z"/>
<path d="M19685 13541 c-70 -18 -117 -56 -151 -121 -23 -45 -24 -152 -2 -195
50 -95 172 -143 288 -115 52 13 120 60 120 85 0 11 -71 45 -94 45 -4 0 -19 -9
-33 -20 -29 -23 -98 -27 -124 -7 -20 15 -39 51 -39 71 0 14 21 16 160 16 l160
0 0 23 c0 37 -26 113 -50 147 -12 17 -39 39 -60 50 -44 22 -131 33 -175 21z
m106 -94 c9 -7 21 -22 28 -34 l12 -23 -90 0 c-85 0 -89 1 -84 20 12 44 95 67
134 37z"/>
<path d="M20285 13536 c-22 -8 -52 -30 -67 -48 l-28 -32 0 42 0 42 -65 0 -65
0 0 -210 0 -210 70 0 70 0 0 119 c0 168 15 201 94 201 58 0 66 -22 66 -182 l0
-138 70 0 70 0 0 165 c0 180 -6 207 -55 239 -36 24 -112 29 -160 12z"/>
<path d="M20738 13536 c-59 -21 -85 -42 -115 -93 -36 -62 -39 -165 -5 -230 45
-86 153 -131 242 -101 l45 15 3 58 c3 52 1 57 -15 50 -10 -5 -35 -10 -56 -13
-32 -3 -44 1 -67 23 -71 68 -31 185 62 185 19 0 44 -7 56 -16 l22 -15 0 64 0
65 -44 11 c-57 14 -82 13 -128 -3z"/>
<path d="M21230 13534 c-19 -8 -47 -29 -62 -47 l-27 -32 -1 43 0 42 -65 0 -65
0 0 -210 0 -210 70 0 70 0 0 105 c0 158 28 205 121 205 l46 0 6 53 c2 28 3 55
0 60 -7 12 -55 7 -93 -9z"/>
<path d="M21545 13541 c-70 -18 -117 -56 -151 -121 -23 -45 -24 -152 -2 -195
50 -95 172 -143 288 -115 52 13 120 60 120 85 0 11 -71 45 -94 45 -4 0 -19 -9
-33 -20 -29 -23 -98 -27 -124 -7 -20 15 -39 51 -39 71 0 14 21 16 160 16 l160
0 0 23 c0 37 -26 113 -50 147 -12 17 -39 39 -60 50 -44 22 -131 33 -175 21z
m106 -94 c9 -7 21 -22 28 -34 l12 -23 -90 0 c-85 0 -89 1 -84 20 12 44 95 67
134 37z"/>
<path d="M23715 13541 c-70 -18 -117 -56 -151 -121 -23 -45 -24 -152 -2 -195
50 -95 172 -143 288 -115 52 13 120 60 120 85 0 11 -71 45 -94 45 -4 0 -19 -9
-33 -20 -29 -23 -98 -27 -124 -7 -20 15 -39 51 -39 71 0 14 21 16 160 16 l160
0 0 23 c0 37 -26 113 -50 147 -12 17 -39 39 -60 50 -44 22 -131 33 -175 21z
m106 -94 c9 -7 21 -22 28 -34 l12 -23 -90 0 c-85 0 -89 1 -84 20 12 44 95 67
134 37z"/>
<path d="M26773 13539 c-46 -13 -100 -71 -114 -121 -6 -24 -9 -78 -7 -121 4
-66 9 -84 34 -120 61 -87 177 -100 255 -30 l39 35 0 -31 0 -31 65 0 65 0 0
210 0 210 -65 0 -65 0 0 -37 0 -38 -23 27 c-40 50 -112 68 -184 47z m174 -124
c33 -23 48 -83 33 -129 -15 -45 -44 -66 -93 -66 -29 0 -46 7 -68 29 -65 65
-21 181 68 181 21 0 48 -7 60 -15z"/>
<path d="M27465 13536 c-22 -8 -52 -30 -67 -48 l-28 -32 0 42 0 42 -65 0 -65
0 0 -210 0 -210 70 0 70 0 0 119 c0 168 15 201 94 201 58 0 66 -22 66 -182 l0
-138 70 0 70 0 0 165 c0 180 -6 207 -55 239 -36 24 -112 29 -160 12z"/>
<path d="M28015 13536 c-22 -8 -52 -30 -67 -48 l-28 -32 0 42 0 42 -65 0 -65
0 0 -210 0 -210 70 0 70 0 0 119 c0 168 15 201 94 201 58 0 66 -22 66 -182 l0
-138 70 0 70 0 0 165 c0 180 -6 207 -55 239 -36 24 -112 29 -160 12z"/>
<path d="M28495 13541 c-70 -18 -117 -56 -151 -121 -23 -45 -24 -152 -2 -195
50 -95 172 -143 288 -115 52 13 120 60 120 85 0 11 -71 45 -94 45 -4 0 -19 -9
-33 -20 -29 -23 -98 -27 -124 -7 -20 15 -39 51 -39 71 0 14 21 16 160 16 l160
0 0 23 c0 37 -26 113 -50 147 -12 17 -39 39 -60 50 -44 22 -131 33 -175 21z
m106 -94 c9 -7 21 -22 28 -34 l12 -23 -90 0 c-85 0 -89 1 -84 20 12 44 95 67
134 37z"/>
<path d="M15927 13362 l85 -179 -56 -120 c-31 -65 -56 -122 -56 -126 0 -4 35
-7 78 -7 l77 0 109 253 c60 138 120 276 133 305 l23 52 -78 0 -77 0 -41 -105
-40 -105 -40 103 -39 102 -82 3 -82 3 86 -179z"/>
<path d="M16892 13387 c3 -130 7 -158 24 -187 43 -74 151 -113 253 -92 60 13
93 32 125 76 19 25 21 44 24 192 l3 164 -70 0 -71 0 0 -145 c0 -132 -2 -147
-20 -165 -30 -30 -83 -27 -109 6 -19 24 -21 40 -21 165 l0 139 -71 0 -71 0 4
-153z"/>
<path d="M22470 13330 l0 -210 75 0 75 0 0 210 0 210 -75 0 -75 0 0 -210z"/>
<path d="M24770 13534 c0 -3 41 -98 92 -210 l91 -204 57 0 56 0 92 203 c51
111 92 205 92 210 0 4 -34 7 -75 7 -41 0 -75 -4 -75 -9 0 -5 -20 -60 -44 -122
-43 -111 -44 -113 -55 -84 -7 17 -28 72 -47 123 l-36 92 -74 0 c-41 0 -74 -3
-74 -6z"/>
<path d="M12695 13364 c-246 -40 -445 -198 -514 -407 -124 -376 63 -743 430
-843 86 -24 270 -24 359 -1 227 60 410 245 455 462 8 39 15 114 15 168 l0 97
-335 0 -335 0 0 -145 0 -145 95 0 c52 0 95 -3 95 -8 0 -4 -7 -18 -16 -31 -51
-72 -221 -66 -291 10 -73 79 -89 259 -33 369 64 125 246 148 331 42 l24 -30
192 72 193 72 -34 49 c-78 117 -215 214 -351 250 -62 16 -227 27 -280 19z"/>
<path d="M13530 12730 l0 -610 215 0 215 0 0 215 0 215 135 0 135 0 0 -215 0
-215 215 0 215 0 0 610 0 610 -215 0 -215 0 0 -205 0 -205 -135 0 -135 0 0
205 0 205 -215 0 -215 0 0 -610z"/>
<path d="M8225 13288 c-7 -26 -67 -318 -96 -478 -21 -111 -31 -181 -49 -345
-7 -55 -18 -120 -25 -145 -8 -25 -19 -80 -25 -124 -7 -43 -18 -102 -25 -130
-7 -28 -16 -73 -19 -101 -4 -27 -16 -88 -26 -135 -11 -47 -31 -148 -45 -225
-27 -146 -41 -216 -74 -375 -11 -52 -20 -122 -19 -155 0 -33 -6 -91 -15 -130
-15 -65 -36 -171 -58 -290 -42 -222 -102 -531 -114 -580 -8 -33 -17 -85 -21
-115 -4 -30 -11 -65 -15 -77 -14 -37 -51 -263 -54 -333 -2 -36 -11 -96 -20
-135 -9 -38 -20 -92 -24 -120 -5 -27 -14 -63 -20 -78 -20 -52 -15 -61 20 -36
18 12 34 30 36 39 5 19 136 140 151 140 13 0 132 110 132 122 0 14 125 128
159 146 30 15 101 82 101 95 0 15 174 176 190 177 16 0 84 65 91 86 7 18 178
174 192 174 14 0 67 51 67 64 0 14 169 169 209 192 20 11 41 31 48 44 6 13 27
37 45 54 18 17 69 63 112 104 44 41 90 78 103 83 13 5 23 14 23 21 0 7 59 67
130 132 72 66 160 150 196 188 37 38 72 67 78 65 7 -3 18 -28 26 -57 8 -28 24
-66 37 -83 13 -17 23 -38 23 -48 0 -9 6 -32 14 -50 8 -19 17 -58 21 -88 4 -30
20 -87 36 -125 16 -39 29 -77 29 -84 0 -13 19 -62 66 -173 13 -31 24 -64 24
-73 0 -10 9 -36 19 -59 11 -24 23 -56 27 -72 4 -17 11 -35 15 -41 13 -16 58
-158 65 -206 4 -23 13 -53 21 -67 7 -14 13 -33 13 -41 0 -8 9 -33 20 -55 11
-22 19 -48 20 -58 0 -10 11 -43 25 -73 14 -30 25 -58 25 -62 0 -5 9 -27 20
-50 11 -22 20 -50 20 -60 0 -11 16 -55 36 -98 36 -79 56 -146 68 -236 4 -26
13 -54 20 -61 7 -7 20 -35 29 -62 37 -116 49 -152 67 -190 27 -60 60 -149 60
-163 0 -7 18 -56 41 -110 22 -53 47 -133 55 -177 9 -44 21 -89 28 -100 7 -11
18 -42 25 -70 7 -27 17 -60 22 -72 l9 -23 605 0 605 0 5 28 c3 15 10 42 15 61
8 29 6 34 -11 38 -13 4 -19 12 -16 22 2 9 76 245 163 525 137 438 162 510 181
519 16 7 28 27 39 69 9 32 21 61 25 64 5 3 9 22 9 42 0 20 9 52 20 70 11 18
20 39 20 48 0 8 9 33 19 55 11 21 22 58 26 82 4 23 15 60 25 82 10 22 25 81
35 130 9 50 25 109 36 132 10 24 19 50 19 58 0 9 9 33 20 55 11 22 20 51 20
65 0 14 9 45 20 67 11 23 20 48 20 55 0 8 9 31 20 53 11 22 25 62 31 90 6 29
17 64 25 78 8 15 14 36 14 47 0 11 7 30 14 41 16 22 26 63 46 179 7 39 17 76
23 83 12 15 83 16 92 1 9 -13 21 -106 45 -334 11 -99 24 -211 30 -250 5 -38
15 -122 20 -185 6 -63 15 -142 21 -175 12 -76 29 -283 39 -495 4 -91 13 -192
19 -225 6 -33 16 -116 21 -185 6 -69 14 -152 20 -185 5 -33 14 -116 20 -185 6
-69 17 -168 25 -220 8 -52 20 -153 26 -225 6 -71 15 -139 20 -152 l9 -23 987
2 988 3 -2 35 c-1 19 -7 76 -13 125 -7 50 -15 122 -19 160 -4 39 -15 87 -24
107 -10 21 -17 63 -17 95 0 32 -8 78 -16 103 -9 25 -20 72 -24 105 -4 33 -15
89 -24 125 -8 36 -23 106 -32 155 -18 105 -50 270 -65 335 -17 81 -30 173 -38
280 -4 58 -13 119 -20 135 -7 17 -16 64 -21 105 -4 41 -15 100 -23 130 -8 30
-30 134 -47 230 -17 96 -35 191 -40 210 -24 102 -30 132 -30 155 0 13 -7 50
-16 82 -9 32 -19 85 -24 118 -4 33 -14 78 -20 100 -12 38 -19 94 -39 295 -4
47 -15 111 -24 143 -20 67 -23 142 -6 131 6 -3 28 -2 48 4 162 48 253 82 356
133 65 32 125 59 133 59 8 0 28 12 46 26 l31 27 6 -1049 c4 -577 9 -1067 12
-1089 4 -22 11 -96 17 -165 6 -69 15 -147 20 -175 31 -164 42 -216 56 -265 39
-131 75 -230 108 -293 20 -38 36 -79 36 -91 0 -25 59 -111 171 -249 42 -52 84
-107 93 -124 8 -17 30 -39 48 -50 38 -23 208 -171 208 -181 0 -12 123 -90 151
-96 15 -3 48 -21 75 -41 27 -19 83 -51 124 -71 247 -119 311 -144 366 -144 19
0 51 -6 71 -14 21 -8 83 -24 138 -35 55 -12 120 -25 145 -31 25 -5 92 -14 150
-20 58 -6 133 -15 166 -20 80 -13 335 -13 421 0 38 5 122 17 188 24 137 17
352 60 403 82 19 8 51 14 72 14 20 0 62 9 94 20 86 29 361 165 403 199 21 16
52 33 68 37 38 9 115 62 185 130 57 55 147 132 200 173 18 13 37 36 43 50 13
28 104 146 153 197 37 39 124 193 124 219 0 11 7 30 15 42 37 53 115 322 150
513 48 270 48 267 52 1953 l4 1587 -915 0 -916 0 -1 -917 c0 -505 0 -1138 1
-1408 1 -486 -7 -694 -35 -845 -15 -84 -57 -207 -88 -260 -24 -42 -67 -90 -80
-90 -5 0 -27 -15 -48 -34 -57 -52 -148 -77 -281 -77 -149 0 -217 19 -303 82
-100 75 -129 119 -174 268 -50 166 -51 196 -51 1793 l0 1488 -649 0 -649 0
-21 -40 c-12 -22 -21 -58 -21 -79 0 -50 -41 -142 -88 -198 -39 -47 -106 -129
-144 -176 -31 -39 -33 -40 -123 -99 -168 -111 -339 -198 -387 -198 -10 0 -33
-9 -52 -19 -22 -13 -61 -21 -112 -24 -44 -3 -117 -12 -164 -21 -133 -26 -349
-33 -995 -35 -456 -2 -626 -6 -710 -17 -266 -34 -326 -44 -425 -64 -58 -12
-113 -26 -122 -31 -9 -5 -40 -14 -70 -20 -29 -6 -66 -19 -83 -29 -16 -10 -64
-26 -105 -36 -74 -18 -147 -52 -170 -79 -7 -8 -17 -15 -22 -15 -5 0 -51 -31
-101 -69 -152 -114 -297 -283 -297 -347 0 -12 -6 -27 -14 -33 -8 -7 -18 -27
-21 -44 -4 -18 -14 -39 -22 -48 -14 -16 -18 -34 -47 -197 -8 -46 -19 -89 -24
-95 -5 -7 -12 -30 -14 -52 -3 -22 -15 -61 -25 -85 -11 -25 -23 -62 -27 -82 -8
-43 -15 -49 -58 -50 -23 -1 -36 5 -47 22 -17 26 -41 88 -41 108 0 7 -8 31 -19
55 -10 23 -24 76 -31 117 -13 79 -26 132 -40 165 -5 11 -14 45 -21 75 -6 30
-15 60 -19 65 -4 6 -13 30 -20 55 -7 25 -18 59 -25 75 -7 17 -16 50 -20 75 -4
25 -16 62 -26 82 -11 21 -19 49 -19 63 0 14 -8 44 -18 68 -24 55 -53 160 -58
217 -3 25 -9 54 -14 65 -5 11 -14 46 -20 77 -6 31 -17 61 -24 68 -8 6 -17 30
-20 54 -4 24 -16 66 -26 95 -11 28 -20 63 -20 77 0 14 -9 37 -20 51 -11 14
-20 38 -20 54 0 15 -9 48 -20 74 -11 26 -20 57 -20 69 0 12 -9 38 -19 59 -10
20 -27 88 -36 149 -10 62 -26 127 -36 143 -9 17 -20 48 -24 70 -4 22 -15 59
-26 82 -10 24 -19 53 -19 66 0 13 -8 39 -17 58 -9 18 -20 56 -25 84 -4 28 -15
55 -25 62 -25 19 -2092 19 -2098 1z m3690 -3977 c3 -6 -68 -245 -157 -532
-145 -464 -165 -522 -186 -530 -13 -5 -97 -9 -188 -9 l-164 0 0 540 0 540 344
0 c206 0 347 -4 351 -9z"/>
<path d="M22635 13010 c-22 -4 -94 -13 -160 -20 -166 -16 -364 -57 -504 -105
-41 -14 -103 -30 -137 -34 -34 -5 -79 -18 -100 -30 -22 -11 -91 -45 -154 -75
-63 -31 -155 -81 -205 -112 -49 -30 -103 -58 -118 -61 -15 -3 -35 -15 -45 -27
-9 -11 -44 -41 -77 -65 -223 -165 -424 -376 -614 -646 -23 -33 -55 -78 -71
-100 -16 -22 -35 -58 -41 -80 -14 -49 -47 -122 -70 -152 -9 -13 -36 -71 -59
-130 -23 -60 -49 -123 -57 -142 -37 -84 -93 -314 -93 -385 0 -29 -7 -102 -16
-162 -21 -138 -24 -590 -5 -709 7 -44 16 -129 21 -190 8 -116 70 -362 109
-432 6 -10 31 -68 56 -129 25 -61 57 -126 71 -145 14 -19 32 -57 40 -85 15
-52 61 -133 95 -169 35 -36 147 -193 169 -234 11 -23 24 -41 29 -41 12 0 251
-239 251 -251 0 -5 6 -9 13 -9 14 0 211 -149 237 -179 26 -30 111 -83 163
-102 28 -10 68 -33 89 -50 22 -17 74 -47 116 -66 42 -19 104 -48 137 -63 97
-46 174 -72 234 -80 31 -4 92 -17 136 -28 134 -35 265 -60 375 -72 58 -6 132
-16 166 -21 77 -12 318 -12 381 0 26 5 98 14 158 21 114 12 412 72 445 90 10
5 37 10 60 10 43 0 164 36 235 70 22 11 58 26 80 33 l40 14 6 184 c20 608 22
709 12 709 -6 0 -43 -19 -84 -41 -41 -23 -92 -51 -114 -62 -22 -11 -50 -27
-62 -37 -11 -9 -47 -22 -78 -30 -48 -11 -58 -11 -65 0 -7 11 -14 11 -33 3 -13
-6 -60 -12 -104 -12 -44 0 -92 -5 -107 -11 -15 -5 -45 -10 -67 -10 -32 0 -39
3 -39 20 0 14 -7 20 -22 20 -20 0 -20 -1 -5 -18 24 -26 21 -42 -8 -42 -18 0
-25 5 -25 20 0 11 -7 20 -15 20 -11 0 -14 -7 -9 -25 7 -28 -19 -46 -38 -27 -8
8 -15 7 -23 -5 -10 -13 -25 -15 -98 -8 -86 7 -86 7 -127 51 -38 42 -51 74 -30
74 6 0 10 9 10 20 0 30 -18 25 -70 -19 -42 -36 -50 -39 -96 -35 -27 2 -40 1
-29 -2 24 -7 55 -33 55 -47 0 -10 -94 -4 -145 9 -19 5 -25 2 -25 -10 0 -20
-36 -21 -47 -2 -4 8 -44 26 -88 41 -134 44 -423 198 -543 289 -33 25 -84 70
-114 100 -65 66 -76 77 -145 145 -62 62 -153 180 -187 243 -164 303 -168 311
-222 478 -31 95 -36 124 -49 316 -12 180 -12 239 -1 410 14 195 42 347 71 384
6 8 24 49 40 90 30 81 67 156 117 235 17 28 37 67 44 88 17 48 45 88 105 152
70 75 171 190 197 224 13 17 29 31 37 31 7 0 59 37 115 83 123 98 241 173 287
182 18 3 64 21 101 40 132 67 336 125 542 155 135 20 425 8 578 -24 152 -31
321 -87 457 -152 29 -13 58 -24 66 -24 8 0 29 -9 47 -20 18 -11 37 -20 42 -20
7 0 9 134 8 377 l-3 377 -25 13 c-88 45 -184 83 -211 83 -17 0 -77 15 -133 34
-55 18 -146 43 -201 55 -55 12 -118 26 -140 31 -22 4 -83 13 -135 19 -52 7
-125 16 -162 21 -78 12 -335 11 -393 0z"/>
<path d="M24360 12315 l0 -554 102 -102 c57 -56 129 -124 160 -152 32 -27 58
-56 58 -63 0 -13 94 -156 137 -207 31 -38 110 -200 126 -262 8 -27 31 -104 51
-170 54 -173 68 -266 69 -445 0 -205 -22 -337 -87 -515 -14 -38 -25 -81 -26
-95 0 -25 -31 -94 -72 -160 -69 -114 -150 -229 -163 -234 -9 -3 -22 -20 -29
-37 -16 -37 -174 -200 -225 -231 -18 -12 -49 -37 -67 -57 l-33 -36 -1 -622 0
-623 920 0 920 0 0 904 0 904 23 6 c12 3 264 6 559 6 477 0 538 -2 552 -16 15
-14 16 -104 14 -910 l-3 -894 918 0 917 0 0 2560 0 2560 -917 0 -918 0 1 -838
c1 -542 -2 -841 -8 -849 -8 -10 -131 -13 -552 -13 -297 0 -551 3 -563 6 l-23
6 0 844 0 844 -920 0 -920 0 0 -555z"/>
<path d="M22920 12146 c0 -18 17 -29 30 -21 8 5 7 11 -1 21 -15 18 -29 18 -29
0z"/>
<path d="M23475 12150 c-3 -5 -2 -10 4 -10 5 0 13 5 16 10 3 6 2 10 -4 10 -5
0 -13 -4 -16 -10z"/>
<path d="M23650 12092 c0 -17 37 -48 47 -39 6 7 -27 57 -38 57 -5 0 -9 -8 -9
-18z"/>
<path d="M22881 12052 c-27 -38 -96 -70 -121 -55 -13 9 -20 9 -28 1 -9 -9 -17
-7 -30 5 -22 20 -32 21 -32 4 0 -14 40 -37 63 -37 7 0 18 -9 25 -20 10 -17 23
-20 76 -20 l64 0 13 38 c15 48 29 66 42 53 6 -6 4 -23 -6 -49 -16 -39 -15 -40
11 -63 68 -61 88 -69 167 -69 53 0 75 4 75 13 0 27 -46 159 -55 159 -5 1 -18
-16 -28 -36 -24 -51 -51 -48 -109 12 -25 26 -51 57 -57 70 -16 30 -46 28 -70
-6z"/>
<path d="M23500 12070 c0 -5 22 -21 48 -34 27 -14 70 -41 95 -60 26 -20 55
-36 64 -36 10 0 50 -22 90 -50 69 -47 122 -66 109 -37 -3 6 -9 20 -12 30 -4 9
-18 20 -33 23 -43 9 -67 21 -102 51 -33 28 -225 123 -248 123 -6 0 -11 -4 -11
-10z"/>
<path d="M23248 12063 c-40 -5 -77 -44 -60 -66 5 -7 14 -34 21 -62 26 -103 14
-96 153 -93 113 3 123 5 120 21 -8 44 -158 210 -186 205 -6 -1 -28 -3 -48 -5z"/>
<path d="M23368 12063 c7 -3 16 -2 19 1 4 3 -2 6 -13 5 -11 0 -14 -3 -6 -6z"/>
<path d="M22602 12024 c9 -9 21 -13 27 -9 16 10 3 25 -22 25 -20 0 -20 -1 -5
-16z"/>
<path d="M23468 12015 c-26 -22 -38 -55 -20 -55 4 0 27 -27 51 -60 l43 -60 74
0 c71 0 75 1 84 26 14 36 13 39 -19 55 -16 8 -63 38 -106 67 -42 28 -77 52
-78 52 -1 0 -14 -12 -29 -25z"/>
<path d="M22238 12023 c7 -3 16 -2 19 1 4 3 -2 6 -13 5 -11 0 -14 -3 -6 -6z"/>
<path d="M22525 11990 c-29 -30 -27 -53 2 -34 24 15 46 51 35 58 -5 3 -22 -8
-37 -24z"/>
<path d="M22460 11995 c0 -8 5 -15 10 -15 6 0 10 7 10 15 0 8 -4 15 -10 15 -5
0 -10 -7 -10 -15z"/>
<path d="M22115 11962 c-73 -40 -127 -76 -150 -102 -11 -12 -32 -28 -47 -36
-16 -8 -28 -20 -28 -26 0 -6 -47 -55 -105 -110 -119 -113 -206 -233 -209 -288
-1 -19 -8 -45 -14 -57 -11 -19 -10 -23 3 -23 18 0 20 -23 4 -52 -6 -11 -12
-75 -14 -142 -2 -66 -7 -137 -12 -156 l-9 -35 -84 -2 c-47 -1 -91 -2 -98 -2
-8 -1 -12 -6 -10 -12 4 -12 173 -15 209 -4 15 5 29 0 47 -18 42 -38 80 -59 93
-51 7 4 1 11 -18 19 -51 21 -103 79 -103 113 0 17 5 34 11 38 7 4 8 20 4 43
-9 49 -8 86 3 151 11 64 27 117 40 133 6 7 12 30 14 52 3 22 9 49 13 59 6 14
5 17 -4 11 -10 -6 -11 -3 -1 15 10 18 14 20 22 9 7 -11 9 -9 5 8 -3 15 1 23
14 26 12 3 16 11 13 24 -8 30 255 293 371 370 50 33 97 62 105 66 13 5 13 5 0
6 -8 0 -37 -12 -65 -27z"/>
<path d="M23695 11820 c-3 -5 -24 -10 -47 -10 -32 0 -39 -3 -34 -16 4 -12 1
-14 -14 -9 -11 4 -20 4 -20 2 0 -2 22 -46 49 -98 26 -52 61 -127 77 -166 l29
-73 81 0 c45 0 103 -3 129 -7 38 -5 47 -3 43 8 -2 8 -14 15 -26 17 -27 4 -62
48 -62 78 0 13 -9 28 -20 34 -24 13 -25 23 -4 44 12 12 20 14 36 5 57 -30 19
33 -82 138 -16 17 -30 36 -30 42 0 15 -23 14 -46 -4 -26 -20 -34 -19 -34 5 0
21 -15 27 -25 10z"/>
<path d="M22927 11775 c4 -26 19 -54 41 -79 27 -30 34 -34 30 -18 -7 27 -7 27
34 2 22 -13 56 -20 103 -22 l69 -3 7 -33 c9 -44 29 -66 29 -31 0 40 -29 202
-37 210 -5 4 -70 9 -145 11 l-137 3 6 -40z"/>
<path d="M23898 11795 c-30 -26 -26 -37 10 -24 13 5 22 17 22 29 0 25 1 25
-32 -5z"/>
<path d="M23249 11806 c-6 -6 45 -213 54 -223 4 -3 7 8 7 25 0 18 5 32 10 32
6 0 10 -5 10 -11 0 -5 4 -8 9 -4 11 6 129 -31 148 -47 7 -5 16 -7 22 -4 14 9
63 -14 83 -38 10 -12 18 -16 18 -8 0 36 40 -22 40 -60 0 -11 7 -18 19 -18 18
0 17 3 -4 65 -25 70 -64 159 -107 239 l-26 51 -139 3 c-77 1 -141 0 -144 -2z
m361 -235 c0 -6 -4 -13 -10 -16 -5 -3 -10 1 -10 9 0 9 5 16 10 16 6 0 10 -4
10 -9z"/>
<path d="M22655 11770 c3 -5 15 -10 25 -10 10 0 22 5 25 10 4 6 -7 10 -25 10
-18 0 -29 -4 -25 -10z"/>
<path d="M22856 11771 c-4 -7 -5 -15 -2 -18 9 -9 19 4 14 18 -4 11 -6 11 -12
0z"/>
<path d="M22220 11750 c0 -5 5 -10 10 -10 6 0 10 5 10 10 0 6 -4 10 -10 10 -5
0 -10 -4 -10 -10z"/>
<path d="M22160 11731 c0 -6 5 -13 10 -16 6 -3 10 1 10 9 0 9 -4 16 -10 16 -5
0 -10 -4 -10 -9z"/>
<path d="M22253 11703 c-22 -8 -14 -23 12 -23 14 0 25 4 25 9 0 11 -21 19 -37
14z"/>
<path d="M22205 11680 c3 -5 8 -10 11 -10 2 0 4 5 4 10 0 6 -5 10 -11 10 -5 0
-7 -4 -4 -10z"/>
<path d="M23970 11655 c7 -9 15 -13 17 -11 7 7 -7 26 -19 26 -6 0 -6 -6 2 -15z"/>
<path d="M22620 11651 c0 -12 29 -23 41 -15 18 10 9 24 -16 24 -14 0 -25 -4
-25 -9z"/>
<path d="M22495 11641 c-3 -5 -1 -12 5 -16 12 -7 30 2 30 16 0 12 -27 12 -35
0z"/>
<path d="M24380 11644 c0 -17 18 -36 30 -32 7 2 4 10 -9 22 -12 11 -21 15 -21
10z"/>
<path d="M24113 11603 c-3 -10 -13 -26 -21 -36 -13 -15 -13 -21 -2 -43 11 -20
12 -29 2 -45 -7 -11 -10 -24 -7 -29 8 -13 48 -13 62 1 6 6 41 14 79 19 58 7
70 6 80 -8 7 -9 15 -14 19 -10 9 8 -112 128 -129 128 -7 0 -21 9 -31 20 -22
25 -44 26 -52 3z"/>
<path d="M22433 11583 c-20 -7 -15 -23 7 -23 11 0 20 4 20 9 0 13 -12 19 -27
14z"/>
<path d="M23177 11559 c7 -7 15 -10 18 -7 3 3 -2 9 -12 12 -14 6 -15 5 -6 -5z"/>
<path d="M23310 11540 c0 -5 7 -10 16 -10 8 0 12 5 9 10 -3 6 -10 10 -16 10
-5 0 -9 -4 -9 -10z"/>
<path d="M23380 11546 c0 -3 14 -11 30 -20 31 -15 39 -9 18 12 -11 11 -48 17
-48 8z"/>
<path d="M23237 11526 c-3 -8 1 -22 9 -33 13 -17 14 -16 8 12 -8 37 -10 39
-17 21z"/>
<path d="M23471 11484 c0 -11 3 -14 6 -6 3 7 2 16 -1 19 -3 4 -6 -2 -5 -13z"/>
<path d="M24382 11484 c-12 -8 -22 -23 -22 -33 0 -14 9 -17 50 -17 28 0 50 1
50 3 0 7 -44 63 -50 63 -3 0 -16 -7 -28 -16z"/>
<path d="M23200 11475 c-7 -9 -10 -18 -7 -21 3 -3 10 4 17 15 13 25 8 27 -10
6z"/>
<path d="M24040 11450 c0 -5 5 -10 10 -10 6 0 10 5 10 10 0 6 -4 10 -10 10 -5
0 -10 -4 -10 -10z"/>
<path d="M24510 11420 c0 -5 5 -10 11 -10 5 0 7 5 4 10 -3 6 -8 10 -11 10 -2
0 -4 -4 -4 -10z"/>
<path d="M24418 11413 c-42 -7 -36 -34 15 -66 25 -16 29 -16 52 -1 29 19 28
15 15 48 -10 26 -19 28 -82 19z"/>
<path d="M23979 11405 c-3 -2 -53 -5 -112 -7 -87 -2 -107 -5 -102 -16 3 -7 5
-19 5 -25 0 -7 5 -4 11 5 8 14 19 16 62 12 28 -3 63 -7 77 -8 18 -2 26 -9 28
-27 2 -13 8 -34 13 -45 9 -17 7 -28 -6 -48 -24 -36 -13 -44 14 -10 17 22 20
35 15 79 -4 34 -3 55 5 59 13 8 15 36 3 36 -5 0 -11 -2 -13 -5z"/>
<path d="M24340 11401 c0 -5 5 -13 10 -16 6 -3 10 -2 10 4 0 5 -4 13 -10 16
-5 3 -10 2 -10 -4z"/>
<path d="M23680 11393 c1 -13 29 -47 35 -42 9 10 -8 49 -21 49 -8 0 -14 -3
-14 -7z"/>
<path d="M24540 11380 c0 -5 5 -10 11 -10 5 0 7 5 4 10 -3 6 -8 10 -11 10 -2
0 -4 -4 -4 -10z"/>
<path d="M22193 11373 c-7 -2 -13 -9 -13 -14 0 -14 26 -10 40 6 10 12 10 15
-1 14 -8 0 -20 -3 -26 -6z"/>
<path d="M21930 11290 c0 -6 7 -13 15 -16 21 -8 67 4 60 16 -8 13 -75 13 -75
0z"/>
<path d="M21830 11270 c0 -6 -11 -15 -25 -20 -14 -5 -25 -14 -25 -20 0 -15 28
-12 37 4 4 8 17 15 28 18 11 2 19 8 18 13 -3 14 -33 19 -33 5z"/>
<path d="M21892 11249 c2 -7 10 -15 17 -17 8 -3 12 1 9 9 -2 7 -10 15 -17 17
-8 3 -12 -1 -9 -9z"/>
<path d="M21496 11195 c4 -8 8 -15 10 -15 2 0 4 7 4 15 0 8 -4 15 -10 15 -5 0
-7 -7 -4 -15z"/>
<path d="M23901 11134 c0 -11 3 -14 6 -6 3 7 2 16 -1 19 -3 4 -6 -2 -5 -13z"/>
<path d="M23880 11089 c0 -5 5 -7 10 -4 6 3 10 8 10 11 0 2 -4 4 -10 4 -5 0
-10 -5 -10 -11z"/>
<path d="M21985 11050 c-3 -5 3 -10 14 -10 11 0 23 5 26 10 3 6 -3 10 -14 10
-11 0 -23 -4 -26 -10z"/>
<path d="M23857 11040 c-3 -14 4 -39 21 -68 14 -26 25 -57 24 -70 -1 -13 2
-20 8 -17 6 3 10 14 10 23 0 19 -30 107 -47 136 -9 17 -10 17 -16 -4z"/>
<path d="M23780 11040 c0 -5 5 -10 10 -10 6 0 10 5 10 10 0 6 -4 10 -10 10 -5
0 -10 -4 -10 -10z"/>
<path d="M21885 11000 c-3 -5 -1 -10 4 -10 6 0 11 5 11 10 0 6 -2 10 -4 10 -3
0 -8 -4 -11 -10z"/>
<path d="M22185 10980 c-3 -5 1 -10 10 -10 9 0 13 5 10 10 -3 6 -8 10 -10 10
-2 0 -7 -4 -10 -10z"/>
<path d="M21856 10935 c4 -8 13 -15 21 -15 13 0 13 3 3 15 -7 8 -16 15 -21 15
-5 0 -6 -7 -3 -15z"/>
<path d="M22295 10930 c-4 -6 9 -10 32 -10 28 0 34 3 23 10 -20 13 -47 13 -55
0z"/>
<path d="M21750 10810 c0 -5 5 -10 11 -10 5 0 7 5 4 10 -3 6 -8 10 -11 10 -2
0 -4 -4 -4 -10z"/>
<path d="M23894 10775 c12 -46 46 -91 77 -100 25 -8 89 -98 89 -124 0 -19 3
-20 22 -10 21 12 22 12 2 28 -10 9 -26 29 -34 45 -8 16 -41 52 -72 80 -32 28
-58 56 -58 63 0 17 -22 63 -30 63 -4 0 -2 -20 4 -45z"/>
<path d="M21815 10770 c3 -5 8 -10 11 -10 2 0 4 5 4 10 0 6 -5 10 -11 10 -5 0
-7 -4 -4 -10z"/>
<path d="M24862 10680 c0 -14 2 -19 5 -12 2 6 2 18 0 25 -3 6 -5 1 -5 -13z"/>
<path d="M22000 10615 c-11 -13 -10 -14 4 -9 9 3 16 10 16 15 0 13 -6 11 -20
-6z"/>
<path d="M24883 10540 c0 -36 2 -50 4 -32 2 17 2 47 0 65 -2 17 -4 3 -4 -33z"/>
<path d="M24460 10541 c0 -6 5 -13 10 -16 6 -3 10 -15 10 -26 0 -10 4 -19 8
-19 18 0 19 13 4 41 -17 28 -32 38 -32 20z"/>
<path d="M24141 10504 l18 -37 -24 -29 c-24 -29 -33 -53 -17 -46 5 2 25 21 45
44 l36 41 -32 31 c-43 41 -49 40 -26 -4z"/>
<path d="M24540 10493 c1 -15 39 -58 46 -51 8 9 -22 58 -36 58 -6 0 -10 -3
-10 -7z"/>
<path d="M24017 10423 c-4 -3 -7 -11 -7 -17 0 -6 5 -5 12 2 6 6 9 14 7 17 -3
3 -9 2 -12 -2z"/>
<path d="M24893 10380 c0 -25 2 -35 4 -22 2 12 2 32 0 45 -2 12 -4 2 -4 -23z"/>
<path d="M21252 10349 c3 -8 10 -14 16 -13 7 1 92 2 189 3 97 0 174 3 172 6
-3 2 -90 7 -193 11 -159 6 -188 5 -184 -7z"/>
<path d="M24550 10286 c0 -9 15 -43 33 -76 40 -75 52 -48 13 28 -27 54 -46 73
-46 48z"/>
<path d="M24011 10215 c-19 -20 -31 -38 -27 -42 7 -7 76 55 76 69 0 16 -16 7
-49 -27z"/>
<path d="M24879 10249 c-1 -2 -10 -62 -21 -134 -25 -177 -30 -199 -37 -205 -3
-3 -12 -27 -19 -55 -7 -27 -26 -71 -43 -98 -16 -26 -29 -55 -29 -63 0 -9 -16
-31 -35 -50 -19 -18 -35 -40 -35 -48 0 -8 -9 -20 -20 -26 -11 -6 -20 -18 -20
-26 0 -8 -13 -23 -30 -32 -18 -10 -30 -25 -30 -38 0 -11 -9 -29 -19 -38 -19
-18 -20 -17 -35 18 -18 42 -29 45 -44 11 -10 -22 -9 -25 13 -31 15 -4 25 -13
25 -25 0 -11 -5 -16 -14 -13 -14 6 -30 -22 -20 -37 10 -17 -7 -49 -26 -49 -20
0 -35 -16 -23 -23 5 -2 25 -7 46 -11 29 -6 39 -4 43 9 4 9 33 44 66 78 32 34
71 87 86 119 16 33 35 58 47 62 18 5 45 63 45 97 0 6 18 48 39 92 38 80 61
161 61 216 0 15 4 31 8 37 11 11 36 253 28 261 -3 4 -7 4 -7 2z"/>
<path d="M21990 10145 c0 -8 4 -15 10 -15 5 0 7 7 4 15 -4 8 -8 15 -10 15 -2
0 -4 -7 -4 -15z"/>
<path d="M23895 10120 c-3 -5 -1 -10 4 -10 6 0 11 5 11 10 0 6 -2 10 -4 10 -3
0 -8 -4 -11 -10z"/>
<path d="M24605 10020 c-3 -5 -1 -18 4 -27 9 -16 10 -14 11 10 0 28 -5 34 -15
17z"/>
<path d="M21334 9789 c-6 -10 31 -31 40 -22 3 4 90 8 193 10 205 5 258 12 92
14 -57 0 -153 2 -212 3 -59 2 -110 -1 -113 -5z"/>
<path d="M21835 9770 c3 -5 8 -10 11 -10 2 0 4 5 4 10 0 6 -5 10 -11 10 -5 0
-7 -4 -4 -10z"/>
<path d="M24525 9713 c3 -75 3 -75 15 -68 15 10 12 101 -4 114 -12 10 -14 2
-11 -46z"/>
<path d="M24510 9585 c0 -8 -5 -24 -12 -35 -7 -10 -9 -23 -5 -27 5 -4 12 -1
17 7 10 16 14 70 5 70 -3 0 -5 -7 -5 -15z"/>
<path d="M22352 9430 c0 -14 2 -19 5 -12 2 6 2 18 0 25 -3 6 -5 1 -5 -13z"/>
<path d="M22371 9362 c-1 -19 6 -41 16 -50 16 -16 16 -16 9 3 -5 11 -12 34
-16 50 l-8 30 -1 -33z"/>
<path d="M12278 9348 l-19 -28 142 0 c128 0 141 2 123 15 -10 8 -37 15 -59 15
-23 0 -45 4 -50 9 -6 5 -34 11 -64 13 -49 3 -55 1 -73 -24z"/>
<path d="M23120 9372 c0 -9 95 -32 133 -32 16 0 26 4 22 10 -3 6 -28 10 -55
10 -27 0 -52 5 -55 10 -7 12 -45 14 -45 2z"/>
<path d="M22960 9335 c0 -2 10 -10 23 -16 20 -11 21 -11 8 4 -13 16 -31 23
-31 12z"/>
<path d="M23344 9309 c-6 -11 -9 -10 49 -14 32 -2 47 1 44 9 -4 13 -85 18 -93
5z"/>
<path d="M21583 9287 c-9 -14 39 -23 90 -16 29 3 60 2 70 -3 12 -6 23 -6 30 0
7 6 21 12 32 15 22 5 -29 9 -143 11 -41 0 -76 -2 -79 -7z"/>
<path d="M22015 9270 c4 -6 11 -8 16 -5 14 9 11 15 -7 15 -8 0 -12 -5 -9 -10z"/>
<path d="M22085 9271 c-3 -5 -1 -12 4 -15 5 -3 11 1 15 9 6 16 -9 21 -19 6z"/>
<path d="M24335 9270 c-3 -5 -1 -10 4 -10 6 0 11 5 11 10 0 6 -2 10 -4 10 -3
0 -8 -4 -11 -10z"/>
<path d="M22381 9235 c-10 -29 -10 -38 3 -57 9 -12 16 -32 16 -44 0 -12 11
-38 25 -58 29 -43 31 -53 8 -78 -15 -17 -15 -19 0 -36 10 -10 17 -23 17 -28 0
-20 57 -74 105 -100 28 -14 60 -36 73 -47 19 -18 22 -18 22 -4 0 9 5 17 10 17
6 0 10 7 10 15 0 8 -6 15 -14 15 -19 0 -76 48 -76 63 0 7 7 25 15 41 18 35 18
36 1 36 -24 0 -29 19 -12 45 20 31 21 64 1 71 -8 4 -15 15 -15 25 0 21 -12 24
-41 9 -13 -7 -19 -7 -19 0 0 5 6 10 13 10 7 1 4 7 -7 15 -10 8 -30 12 -45 9
-36 -8 -65 25 -63 71 2 47 -12 51 -27 10z"/>
<path d="M23271 9244 c0 -11 3 -14 6 -6 3 7 2 16 -1 19 -3 4 -6 -2 -5 -13z"/>
<path d="M22047 9206 c-3 -8 -2 -18 4 -22 16 -9 22 2 11 21 -8 15 -10 16 -15
1z"/>
<path d="M22885 9210 c-3 -5 -1 -10 4 -10 6 0 11 5 11 10 0 6 -2 10 -4 10 -3
0 -8 -4 -11 -10z"/>
<path d="M22690 9199 c-34 -6 -33 -6 13 -8 46 -1 59 3 35 11 -7 2 -29 1 -48
-3z"/>
<path d="M22790 9204 c0 -4 11 -17 25 -30 26 -24 32 -17 15 17 -10 17 -40 27
-40 13z"/>
<path d="M22600 9158 l-25 -10 23 -11 c25 -11 35 -6 30 16 -2 11 -9 12 -28 5z"/>
<path d="M23255 9114 c-4 -22 -16 -79 -26 -128 -18 -84 -18 -116 0 -88 10 17
44 242 37 249 -2 3 -8 -12 -11 -33z"/>
<path d="M23622 9058 c-19 -40 -45 -90 -58 -110 -24 -38 -32 -64 -15 -54 13 8
113 216 109 227 -2 5 -18 -23 -36 -63z"/>
<path d="M22735 9098 c8 -25 28 -43 33 -28 2 5 -6 18 -18 30 l-22 22 7 -24z"/>
<path d="M23949 9063 c-13 -16 -12 -17 4 -4 9 7 17 15 17 17 0 8 -8 3 -21 -13z"/>
<path d="M22851 9056 c-1 -11 4 -49 10 -85 13 -78 34 -112 24 -38 -10 63 -33
148 -34 123z"/>
<path d="M22270 9042 c0 -5 7 -15 15 -22 8 -7 15 -8 15 -2 0 5 -7 15 -15 22
-8 7 -15 8 -15 2z"/>
<path d="M23874 8968 l-19 -23 23 19 c12 11 22 21 22 23 0 8 -8 2 -26 -19z"/>
<path d="M22060 8890 c0 -7 -13 -8 -35 -4 -28 5 -35 3 -35 -10 0 -17 39 -21
75 -7 11 5 33 4 48 -2 42 -14 45 0 4 18 -43 18 -57 19 -57 5z"/>
<path d="M22280 8891 c0 -13 48 -42 54 -33 2 4 -9 15 -25 24 -16 10 -29 13
-29 9z"/>
<path d="M23484 8825 c-14 -25 -64 -80 -110 -124 -78 -72 -99 -101 -74 -101
25 0 230 231 230 260 0 23 -21 7 -46 -35z"/>
<path d="M23770 8859 c0 -5 5 -7 10 -4 6 3 10 8 10 11 0 2 -4 4 -10 4 -5 0
-10 -5 -10 -11z"/>
<path d="M22885 8843 c4 -10 11 -36 15 -58 17 -84 67 -206 91 -220 17 -11 24
4 12 23 -25 36 -64 128 -85 199 -12 40 -25 73 -31 73 -5 0 -6 -8 -2 -17z"/>
<path d="M23200 8842 c0 -49 -76 -238 -105 -262 -19 -16 -19 -30 0 -30 32 0
74 89 110 230 17 67 18 80 5 80 -5 0 -10 -8 -10 -18z"/>
<path d="M23709 8799 c-19 -16 -45 -38 -59 -47 -14 -9 -43 -31 -66 -49 -23
-18 -49 -33 -58 -33 -10 0 -29 -9 -43 -20 -16 -12 -20 -20 -11 -20 18 0 118
49 118 58 0 4 34 32 75 62 41 30 77 61 79 68 8 18 2 15 -35 -19z"/>
<path d="M22680 8720 c11 -16 35 -39 53 -51 l32 -22 -35 38 c-19 21 -40 45
-47 52 -22 25 -24 13 -3 -17z"/>
<path d="M22606 8625 c-4 -11 2 -15 27 -15 30 1 31 1 13 15 -25 19 -32 19 -40
0z"/>
<path d="M22510 8620 c0 -5 7 -10 15 -10 8 0 15 5 15 10 0 6 -7 10 -15 10 -8
0 -15 -4 -15 -10z"/>
<path d="M7284 8216 c-3 -13 -4 -38 -2 -57 l3 -34 985 0 985 0 3 58 3 57 -985
0 -986 0 -6 -24z"/>
</g>
</svg>
